<svg id="Capa_1" data-name="Capa 1" xmlns="http://www.w3.org/2000/svg" viewBox="0 0 272.92 91.28"><defs><style>.cls-1,.cls-2,.cls-5,.cls-6{fill:#ff8001;}.cls-2{opacity:0.3;}.cls-3,.cls-4{fill:none;stroke:#ff8001;stroke-miterlimit:10;stroke-width:5px;}.cls-3{stroke-linecap:round;}.cls-5{font-size:39.36px;}.cls-5,.cls-6{font-family:Hobo;}.cls-6{font-size:53.53px;}.cls-7{opacity:0.64;}.cls-8{fill:#4fa0ca;}</style></defs><path class="cls-1" d="M260.91,27.5c9.75,18,8.75,40.12,5.55,55,.34,1.11,4.34.16,6.57,1.54,1.27-8.27,2.6-43.11-10.57-58.3C261.81,25.73,260.91,27.5,260.91,27.5Z" transform="translate(-15.19 -5.09)"/><path class="cls-2" d="M260.91,27.5s.9-1.77,1.55-1.76l.24.28a8.53,8.53,0,0,0-.44.74c9.75,18,8.75,40.12,5.55,55,.29.92,3.15.4,5.38,1-.05.46-.11.87-.16,1.24-2.23-1.38-6.23-.43-6.57-1.54C269.66,67.62,270.66,45.49,260.91,27.5Z" transform="translate(-15.19 -5.09)"/><path class="cls-1" d="M264.88,9.28l2.32,3.49L264,10.19c-.31.35-.6.72-.87,1.09l3.13,3.37-3.91-2.18a17.2,17.2,0,0,0-.76,15.19c3.93-5.94,9.72-18.33,9.94-22.57A19.7,19.7,0,0,0,264.88,9.28Z" transform="translate(-15.19 -5.09)"/><path class="cls-1" d="M261.44,27.23c.05.14.1.29.16.43,3.93-5.94,9.72-18.33,9.94-22.57a81.6,81.6,0,0,0-5.3,9.62l0,0C263.88,19.6,261.71,24.8,261.44,27.23Z" transform="translate(-15.19 -5.09)"/><path class="cls-1" d="M256.87,17.53a7.66,7.66,0,0,1,2.19-1.26,15.43,15.43,0,0,0-1.52-2.19c-.67.35-1.58.83-2.83,1.52a9.35,9.35,0,0,1,1.68-2.76A11.92,11.92,0,0,0,245,9.75c3.49,2.5,7.27,13.57,16.6,18a22.28,22.28,0,0,0-2.09-10.63A25,25,0,0,0,256.87,17.53Z" transform="translate(-15.19 -5.09)"/><path class="cls-1" d="M259.5,17.08a25,25,0,0,0-2.63.45,7.66,7.66,0,0,1,2.19-1.26,15.43,15.43,0,0,0-1.52-2.19c-.67.35-1.58.83-2.83,1.52a9.35,9.35,0,0,1,1.68-2.76A11.92,11.92,0,0,0,245,9.75c3.3.06,10.47,3.5,16.6,18A22.28,22.28,0,0,0,259.5,17.08Z" transform="translate(-15.19 -5.09)"/><path class="cls-1" d="M274.15,14.67a13.12,13.12,0,0,0-6.71,2.69c.32,1,.72,2.27,1.2,3.89a6.84,6.84,0,0,0-2.55-2.43,15.74,15.74,0,0,0-4.66,8.72c2,1.5,8.77.18,15.28-2.55a18.09,18.09,0,0,0-3.15-5.54c2.61.7,4.59,4.08,4.95,4.73l.89-.43a14.85,14.85,0,0,0-1.57-2.91,10.16,10.16,0,0,1,3.11,2.08,26.94,26.94,0,0,0,7.18-5.66C284.89,18.15,281,14.41,274.15,14.67Z" transform="translate(-15.19 -5.09)"/><path class="cls-1" d="M261.82,27.25c2.24,1.28,8.62.37,14.89-2.26a18.09,18.09,0,0,0-3.15-5.54c2.61.7,4.59,4.07,4.95,4.73l.89-.43a14.85,14.85,0,0,0-1.57-2.91,10.16,10.16,0,0,1,3.11,2.08,26.94,26.94,0,0,0,7.18-5.66C282.87,22.15,272.94,12.84,261.82,27.25Z" transform="translate(-15.19 -5.09)"/><path class="cls-1" d="M250.24,22.52a16.44,16.44,0,0,0-1.66-2.84c-.49,0-1,0-1.5,0A32.08,32.08,0,0,1,249.23,24c-.6-.75-2.6-2.89-3.8-4.16a17.51,17.51,0,0,0-13.07,9.05,42.85,42.85,0,0,1,13.12-1.74c.87-1.4,2-2.91,2.75-3.2a16,16,0,0,0-.82,3.21c6.3.12,11.91.87,14.17.62-1.7-4.54-6.4-7.44-11.7-8A15.92,15.92,0,0,1,250.24,22.52Z" transform="translate(-15.19 -5.09)"/><path class="cls-1" d="M261.58,27.78l-.06-.13c-13.72-6.46-25.65-3.85-29,1.19h0a43.46,43.46,0,0,1,13-1.7c.87-1.4,2-2.91,2.75-3.2a16,16,0,0,0-.82,3.21C253.71,27.28,259.32,28,261.58,27.78Z" transform="translate(-15.19 -5.09)"/><path class="cls-1" d="M276.65,32.5A10.91,10.91,0,0,0,279.21,31a17.8,17.8,0,0,0-.6-1.9,9.69,9.69,0,0,0-2.77-3.41,10.92,10.92,0,0,0-14.42,2c10.61,4.68,13.64,11.45,20,20-.16-.66-.57-9.27-1.9-15.32A16.85,16.85,0,0,1,276.65,32.5Z" transform="translate(-15.19 -5.09)"/><path class="cls-1" d="M261.52,27.58l-.1.12c10.61,4.68,13.64,11.45,20,20C276.88,27,267.45,25.47,261.52,27.58Z" transform="translate(-15.19 -5.09)"/><path class="cls-1" d="M249.3,34.25a29.53,29.53,0,0,1,2,3.17,14.87,14.87,0,0,0-2.71-2,11.61,11.61,0,0,0-.67,1.53,13.3,13.3,0,0,1,2.37,2.34s-1.49-.61-2.77-1c-.75,3.06-.55,6.72.17,11,2.39-3.53,11.49-13.53,14-21.71C255.3,29,251.44,31.19,249.3,34.25Z" transform="translate(-15.19 -5.09)"/><path class="cls-1" d="M247.69,49.25c2.4-3.55,11.48-13.53,14-21.7C252.63,31.75,247.54,43.62,247.69,49.25Z" transform="translate(-15.19 -5.09)"/><path class="cls-1" d="M267.68,75.65c0-.11,0-.22.05-.32a15.47,15.47,0,0,0,5.91,1.82c0,.1,0,.2,0,.3A15.2,15.2,0,0,1,267.68,75.65Zm6-11.49c0-.1,0-.21,0-.32a10.43,10.43,0,0,1-5,.15c0,.11,0,.21,0,.32A10.79,10.79,0,0,0,273.64,64.16Zm-5.08-7.75a8.56,8.56,0,0,0,4.36-1.09l0-.32a8.44,8.44,0,0,1-4.35,1.1C268.55,56.2,268.55,56.31,268.56,56.41Zm1.89,26.87a7.52,7.52,0,0,1,1.17.2c.54-.07,1.05-.16,1.52-.25,0-.1,0-.21,0-.33A24.31,24.31,0,0,1,270.45,83.28ZM268.4,69.15c0,.1,0,.2,0,.3a28.38,28.38,0,0,0,5.41.07v-.31A27.29,27.29,0,0,1,268.4,69.15Zm-3.58-32.68c0,.11.07.21.11.31a9.89,9.89,0,0,0,3.45-.86l-.11-.29A9.58,9.58,0,0,1,264.82,36.47ZM266,30.86a7.19,7.19,0,0,1-3,.94l.13.3a7.14,7.14,0,0,0,3-1A2.15,2.15,0,0,0,266,30.86Zm1.94,19c0,.1,0,.21,0,.31a29.06,29.06,0,0,0,3.93-1.62l-.06-.32A28.69,28.69,0,0,1,267.94,49.88Zm-1.23-6.76a16,16,0,0,0,3.84-.59,2.45,2.45,0,0,1-.08-.29,15.88,15.88,0,0,1-3.83.58C266.66,42.92,266.69,43,266.71,43.12Z" transform="translate(-15.19 -5.09)"/><path class="cls-3" d="M48.08,28C50,9.46,30.31,7.65,30.29,23.09c0,17.31,0,69.24,0,69.24" transform="translate(-15.19 -5.09)"/><polyline class="cls-4" points="41.4 35.3 15.09 35.3 15.11 48.6 41.48 48.14 41.4 61.11 15.09 61.11"/><text class="cls-5" transform="translate(57.21 65.02) scale(0.8 1)">iscinas Malen</text><text class="cls-6" transform="translate(33.14 64.88) scale(0.76 1)">P</text><g class="cls-7"><path class="cls-8" d="M284.81,79.66c-13.94,3.09-26.62,5.89-45.85,5.83-49-.07-99.21-21.5-141.4-6.86,53.17-5.12,89.62,16.11,141.94,12.61C256.33,90.08,271.45,86.26,284.81,79.66Z" transform="translate(-15.19 -5.09)"/><path class="cls-8" d="M198.63,92.16C157,93.26,128.68,87.56,97,80.67c-27.07-4.76-60.45-6.63-81.8,4.7,22.33-5.15,46.74-3.31,67.18.24C101,89.22,150.86,103.31,198.63,92.16Z" transform="translate(-15.19 -5.09)"/></g></svg>